# xmcd
#
# Track frame offsets:
#	150
#	15264
#	35122
#	57988
#	70958
#	86245
#	98014
#	117882
#	133680
#	141756
#	155593
#	168010
#	182298
#	189839
#	201659
#	215798
#
# Disc length: 3038 seconds
#
# Revision: 1
# Processed by: cddbd v1.5.2PL0 Copyright (c) Steve Scherf et al.
# Submitted via: EZCDAudioConverter 3.1.0.1
#
DISCID=e10bdc10
DTITLE=Various Artist - 50 důvodů proč mít rád country (3 CD)
DYEAR=2013
DGENRE=Country
TTITLE0=Nedvěd František - Co s tím dělat můžu (Poor Boy Blues)
TTITLE1=Křesťan Robert a Druhá tráva - Každé zrnko písku (Every Grain Of Saind
TTITLE1=)
TTITLE2=Bobek Pavel - Rokenrolu dal jsem všechny nejlepší své dny (Rock And Ro
TTITLE2=ll (I Gave You the Best Years Of My Life))
TTITLE3=Tučný Michal - Tak už nefňukej (Drivin' My Life Away)
TTITLE4=Daněk Wabi - Jižní eskadrona (Montgomery - Just Before the Battle, Mot
TTITLE4=her) (traditional)
TTITLE5=Pacifik - Náš boží chrám (Wesleyan Hymn)
TTITLE6=Rangers - Kopej hrob můj (Take My Hammer)
TTITLE7=Schovanky - Prázdná dlaň (I Know Where I'm Going)
TTITLE8=Taxmeni - A tak já zas v tom lítám (The Salty Dog Blues)
TTITLE9=Vodička Ladislav - Tom Dooley (traditional)
TTITLE10=KTO - Plácek v oudolí (When You're Smilling)
TTITLE11=Greenhorns - Začni větře dout (A Thousand Miles Away)
TTITLE12=Vabank Unit - Je to jako sen (Bring Him Your Talents)
TTITLE13=Paběrky Marko Čermáka - Tak se toulám (Hallelujah! I'm a Bum)
TTITLE14=Spojené osady (Praha) - Sluníčko zlaté až zazáří
TTITLE15=Ryvola Wabi - Vracím se, vracím
EXTD=
EXTT0=
EXTT1=
EXTT2=
EXTT3=
EXTT4=
EXTT5=
EXTT6=
EXTT7=
EXTT8=
EXTT9=
EXTT10=
EXTT11=
EXTT12=
EXTT13=
EXTT14=
EXTT15=
PLAYORDER=
